<svg width="249" height="34" viewBox="0 0 249 34" fill="none" xmlns="http://www.w3.org/2000/svg">
<path d="M0.816 26V3.6H10.896C12.3253 3.6 13.616 3.90933 14.768 4.528C15.9413 5.14667 16.8587 6 17.52 7.088C18.1813 8.15467 18.512 9.37067 18.512 10.736C18.512 12.144 18.1813 13.4133 17.52 14.544C16.8587 15.6533 15.952 16.528 14.8 17.168C13.648 17.808 12.3467 18.128 10.896 18.128H6V26H0.816ZM13.232 26L7.536 15.888L13.104 15.088L19.44 26H13.232ZM6 13.968H10.416C10.9707 13.968 11.4507 13.8507 11.856 13.616C12.2827 13.36 12.6027 13.008 12.816 12.56C13.0507 12.112 13.168 11.6 13.168 11.024C13.168 10.448 13.04 9.94667 12.784 9.52C12.528 9.072 12.1547 8.73067 11.664 8.496C11.1947 8.26133 10.6187 8.144 9.936 8.144H6V13.968ZM30.2118 26.32C28.3344 26.32 26.7024 25.9467 25.3158 25.2C23.9291 24.432 22.8518 23.3973 22.0838 22.096C21.3158 20.7733 20.9318 19.2693 20.9318 17.584C20.9318 16.2827 21.1451 15.088 21.5718 14C21.9984 12.912 22.5958 11.9733 23.3638 11.184C24.1318 10.3733 25.0384 9.75467 26.0838 9.328C27.1504 8.88 28.3131 8.656 29.5718 8.656C30.7664 8.656 31.8544 8.86933 32.8358 9.296C33.8384 9.72267 34.7024 10.32 35.4278 11.088C36.1531 11.856 36.7078 12.7627 37.0918 13.808C37.4758 14.8533 37.6464 15.9947 37.6038 17.232L37.5718 18.608H24.0358L23.2998 15.728H33.4118L32.8678 16.336V15.696C32.8251 15.1627 32.6544 14.6933 32.3558 14.288C32.0784 13.8613 31.7051 13.5307 31.2358 13.296C30.7664 13.0613 30.2331 12.944 29.6358 12.944C28.8038 12.944 28.0891 13.1147 27.4918 13.456C26.9158 13.776 26.4784 14.256 26.1798 14.896C25.8811 15.5147 25.7318 16.2827 25.7318 17.2C25.7318 18.1387 25.9238 18.96 26.3078 19.664C26.7131 20.3467 27.2891 20.88 28.0358 21.264C28.8038 21.648 29.7104 21.84 30.7558 21.84C31.4811 21.84 32.1211 21.7333 32.6758 21.52C33.2518 21.3067 33.8704 20.944 34.5318 20.432L36.9318 23.824C36.2704 24.4 35.5664 24.8693 34.8198 25.232C34.0731 25.5947 33.3051 25.8613 32.5158 26.032C31.7478 26.224 30.9798 26.32 30.2118 26.32ZM48.3218 26.32C46.6791 26.32 45.2071 25.936 43.9058 25.168C42.6044 24.4 41.5698 23.3547 40.8018 22.032C40.0551 20.688 39.6818 19.1733 39.6818 17.488C39.6818 15.8027 40.0551 14.2987 40.8018 12.976C41.5698 11.632 42.6044 10.576 43.9058 9.808C45.2071 9.04 46.6791 8.656 48.3218 8.656C49.8364 8.656 51.2231 8.92267 52.4818 9.456C53.7618 9.98933 54.7751 10.736 55.5218 11.696L52.7378 15.024C52.4391 14.6827 52.0871 14.3627 51.6818 14.064C51.2764 13.7653 50.8284 13.5307 50.3378 13.36C49.8471 13.1893 49.3351 13.104 48.8018 13.104C47.9911 13.104 47.2764 13.296 46.6578 13.68C46.0391 14.0427 45.5591 14.5547 45.2178 15.216C44.8764 15.8773 44.7058 16.6347 44.7058 17.488C44.7058 18.2987 44.8764 19.0347 45.2178 19.696C45.5804 20.3573 46.0711 20.88 46.6898 21.264C47.3084 21.648 48.0124 21.84 48.8018 21.84C49.3564 21.84 49.8684 21.776 50.3378 21.648C50.8071 21.4987 51.2338 21.2853 51.6178 21.008C52.0231 20.7307 52.3964 20.3893 52.7378 19.984L55.4897 23.344C54.7644 24.2613 53.7511 24.9867 52.4498 25.52C51.1698 26.0533 49.7938 26.32 48.3218 26.32ZM58.5913 26V9.008H63.7113V26H58.5913ZM61.1513 5.648C60.1913 5.648 59.4339 5.424 58.8793 4.976C58.3459 4.50667 58.0793 3.84533 58.0793 2.992C58.0793 2.224 58.3566 1.59466 58.9113 1.104C59.4659 0.613331 60.2126 0.367998 61.1513 0.367998C62.1113 0.367998 62.8579 0.602665 63.3913 1.072C63.9246 1.52 64.1913 2.16 64.1913 2.992C64.1913 3.78133 63.9139 4.42133 63.3593 4.912C62.8259 5.40267 62.0899 5.648 61.1513 5.648ZM68.522 33.04V9.008H73.386L73.578 12.816L72.618 12.528C72.7673 11.824 73.13 11.184 73.706 10.608C74.282 10.032 75.0073 9.57333 75.882 9.232C76.778 8.86933 77.7167 8.688 78.698 8.688C80.1487 8.688 81.4393 9.072 82.57 9.84C83.7007 10.5867 84.586 11.6213 85.226 12.944C85.8873 14.2453 86.218 15.76 86.218 17.488C86.218 19.1947 85.8873 20.7093 85.226 22.032C84.586 23.3547 83.69 24.4 82.538 25.168C81.4073 25.9147 80.106 26.288 78.634 26.288C77.674 26.288 76.7567 26.1067 75.882 25.744C75.0073 25.3813 74.2713 24.8907 73.674 24.272C73.0767 23.6533 72.682 22.9813 72.49 22.256L73.674 21.808V33.04H68.522ZM77.386 21.968C78.154 21.968 78.826 21.7867 79.402 21.424C79.978 21.04 80.426 20.5173 80.746 19.856C81.066 19.1947 81.226 18.4053 81.226 17.488C81.226 16.592 81.066 15.8133 80.746 15.152C80.426 14.4693 79.978 13.9467 79.402 13.584C78.8473 13.2 78.1753 13.008 77.386 13.008C76.5967 13.008 75.914 13.1893 75.338 13.552C74.762 13.9147 74.314 14.4373 73.994 15.12C73.674 15.8027 73.514 16.592 73.514 17.488C73.514 18.4053 73.674 19.1947 73.994 19.856C74.314 20.5173 74.762 21.04 75.338 21.424C75.914 21.7867 76.5967 21.968 77.386 21.968ZM97.7118 26.32C95.8344 26.32 94.2024 25.9467 92.8158 25.2C91.4291 24.432 90.3518 23.3973 89.5838 22.096C88.8158 20.7733 88.4318 19.2693 88.4318 17.584C88.4318 16.2827 88.6451 15.088 89.0718 14C89.4984 12.912 90.0958 11.9733 90.8638 11.184C91.6318 10.3733 92.5384 9.75467 93.5838 9.328C94.6504 8.88 95.8131 8.656 97.0718 8.656C98.2664 8.656 99.3544 8.86933 100.336 9.296C101.338 9.72267 102.202 10.32 102.928 11.088C103.653 11.856 104.208 12.7627 104.592 13.808C104.976 14.8533 105.146 15.9947 105.104 17.232L105.072 18.608H91.5358L90.7998 15.728H100.912L100.368 16.336V15.696C100.325 15.1627 100.154 14.6933 99.8558 14.288C99.5784 13.8613 99.2051 13.5307 98.7358 13.296C98.2664 13.0613 97.7331 12.944 97.1358 12.944C96.3038 12.944 95.5891 13.1147 94.9918 13.456C94.4158 13.776 93.9784 14.256 93.6798 14.896C93.3811 15.5147 93.2318 16.2827 93.2318 17.2C93.2318 18.1387 93.4238 18.96 93.8078 19.664C94.2131 20.3467 94.7891 20.88 95.5358 21.264C96.3038 21.648 97.2104 21.84 98.2558 21.84C98.9811 21.84 99.6211 21.7333 100.176 21.52C100.752 21.3067 101.37 20.944 102.032 20.432L104.432 23.824C103.77 24.4 103.066 24.8693 102.32 25.232C101.573 25.5947 100.805 25.8613 100.016 26.032C99.2478 26.224 98.4798 26.32 97.7118 26.32ZM129.336 26.32C127.65 26.32 126.093 26.0427 124.664 25.488C123.256 24.912 122.029 24.112 120.984 23.088C119.938 22.0427 119.128 20.816 118.552 19.408C117.997 17.9787 117.72 16.4107 117.72 14.704C117.72 13.04 118.018 11.504 118.616 10.096C119.213 8.688 120.034 7.472 121.08 6.448C122.146 5.40267 123.394 4.592 124.824 4.016C126.274 3.44 127.853 3.152 129.56 3.152C130.626 3.152 131.672 3.29067 132.696 3.568C133.72 3.84533 134.669 4.26133 135.544 4.816C136.44 5.34933 137.208 5.98933 137.848 6.736L134.52 10.544C134.072 10.0747 133.592 9.66933 133.08 9.328C132.589 8.96533 132.045 8.688 131.448 8.496C130.85 8.304 130.21 8.208 129.528 8.208C128.674 8.208 127.864 8.368 127.096 8.688C126.349 8.98667 125.688 9.424 125.112 10C124.557 10.5547 124.12 11.2373 123.8 12.048C123.48 12.8587 123.32 13.7653 123.32 14.768C123.32 15.7493 123.48 16.6453 123.8 17.456C124.12 18.2453 124.568 18.928 125.144 19.504C125.72 20.08 126.413 20.5173 127.224 20.816C128.056 21.1147 128.973 21.264 129.976 21.264C130.658 21.264 131.309 21.168 131.928 20.976C132.546 20.784 133.112 20.528 133.624 20.208C134.157 19.8667 134.626 19.4827 135.032 19.056L137.656 23.216C137.122 23.8133 136.408 24.3467 135.512 24.816C134.637 25.2853 133.656 25.6587 132.568 25.936C131.501 26.192 130.424 26.32 129.336 26.32ZM147.107 26.288C145.677 26.288 144.397 25.9147 143.266 25.168C142.157 24.4 141.272 23.3547 140.611 22.032C139.949 20.688 139.618 19.1733 139.618 17.488C139.618 15.76 139.949 14.2347 140.611 12.912C141.272 11.5893 142.179 10.5547 143.331 9.808C144.483 9.04 145.795 8.656 147.267 8.656C148.077 8.656 148.813 8.77333 149.475 9.008C150.157 9.24267 150.755 9.57333 151.267 10C151.779 10.4053 152.216 10.8853 152.579 11.44C152.941 11.9733 153.208 12.5493 153.379 13.168L152.323 13.04V9.008H157.411V26H152.227V21.904L153.379 21.872C153.208 22.4693 152.931 23.0347 152.547 23.568C152.163 24.1013 151.693 24.5707 151.139 24.976C150.584 25.3813 149.965 25.7013 149.283 25.936C148.6 26.1707 147.875 26.288 147.107 26.288ZM148.515 21.968C149.304 21.968 149.987 21.7867 150.563 21.424C151.139 21.0613 151.587 20.5493 151.907 19.888C152.227 19.2053 152.387 18.4053 152.387 17.488C152.387 16.5707 152.227 15.7813 151.907 15.12C151.587 14.4373 151.139 13.9147 150.563 13.552C149.987 13.168 149.304 12.976 148.515 12.976C147.747 12.976 147.075 13.168 146.499 13.552C145.944 13.9147 145.507 14.4373 145.187 15.12C144.867 15.7813 144.707 16.5707 144.707 17.488C144.707 18.4053 144.867 19.2053 145.187 19.888C145.507 20.5493 145.944 21.0613 146.499 21.424C147.075 21.7867 147.747 21.968 148.515 21.968ZM161.96 26V2.32H167.08V26H161.96ZM179.335 26.32C177.564 26.32 175.985 25.936 174.599 25.168C173.233 24.4 172.145 23.3547 171.335 22.032C170.545 20.7093 170.151 19.1947 170.151 17.488C170.151 15.7813 170.545 14.2667 171.335 12.944C172.145 11.6213 173.233 10.576 174.599 9.808C175.985 9.04 177.564 8.656 179.335 8.656C181.105 8.656 182.673 9.04 184.039 9.808C185.425 10.576 186.513 11.6213 187.303 12.944C188.092 14.2667 188.487 15.7813 188.487 17.488C188.487 19.1947 188.092 20.7093 187.303 22.032C186.513 23.3547 185.425 24.4 184.039 25.168C182.673 25.936 181.105 26.32 179.335 26.32ZM179.335 21.904C180.103 21.904 180.785 21.712 181.383 21.328C181.98 20.944 182.449 20.4213 182.791 19.76C183.132 19.0987 183.292 18.3413 183.271 17.488C183.292 16.6347 183.132 15.8773 182.791 15.216C182.449 14.5333 181.98 14 181.383 13.616C180.785 13.232 180.103 13.04 179.335 13.04C178.567 13.04 177.873 13.232 177.255 13.616C176.657 14 176.188 14.5333 175.847 15.216C175.505 15.8773 175.345 16.6347 175.367 17.488C175.345 18.3413 175.505 19.0987 175.847 19.76C176.188 20.4213 176.657 20.944 177.255 21.328C177.873 21.712 178.567 21.904 179.335 21.904ZM191.835 26V9.008H196.699L196.923 14.544L195.963 13.488C196.219 12.5707 196.635 11.7493 197.211 11.024C197.808 10.2987 198.501 9.72267 199.291 9.296C200.08 8.86933 200.923 8.656 201.819 8.656C202.203 8.656 202.555 8.688 202.875 8.752C203.216 8.816 203.525 8.89067 203.803 8.976L202.395 14.64C202.16 14.4907 201.84 14.3733 201.435 14.288C201.051 14.1813 200.645 14.128 200.219 14.128C199.749 14.128 199.312 14.2133 198.907 14.384C198.501 14.5333 198.16 14.7573 197.883 15.056C197.605 15.3547 197.381 15.7067 197.211 16.112C197.061 16.5173 196.987 16.976 196.987 17.488V26H191.835ZM206.685 26V9.008H211.805V26H206.685ZM209.245 5.648C208.285 5.648 207.528 5.424 206.973 4.976C206.44 4.50667 206.173 3.84533 206.173 2.992C206.173 2.224 206.45 1.59466 207.005 1.104C207.56 0.613331 208.306 0.367998 209.245 0.367998C210.205 0.367998 210.952 0.602665 211.485 1.072C212.018 1.52 212.285 2.16 212.285 2.992C212.285 3.78133 212.008 4.42133 211.453 4.912C210.92 5.40267 210.184 5.648 209.245 5.648ZM224.712 26.32C222.834 26.32 221.202 25.9467 219.816 25.2C218.429 24.432 217.352 23.3973 216.584 22.096C215.816 20.7733 215.432 19.2693 215.432 17.584C215.432 16.2827 215.645 15.088 216.072 14C216.498 12.912 217.096 11.9733 217.864 11.184C218.632 10.3733 219.538 9.75467 220.584 9.328C221.65 8.88 222.813 8.656 224.072 8.656C225.266 8.656 226.354 8.86933 227.336 9.296C228.338 9.72267 229.202 10.32 229.928 11.088C230.653 11.856 231.208 12.7627 231.592 13.808C231.976 14.8533 232.146 15.9947 232.104 17.232L232.072 18.608H218.536L217.8 15.728H227.912L227.368 16.336V15.696C227.325 15.1627 227.154 14.6933 226.856 14.288C226.578 13.8613 226.205 13.5307 225.736 13.296C225.266 13.0613 224.733 12.944 224.136 12.944C223.304 12.944 222.589 13.1147 221.992 13.456C221.416 13.776 220.978 14.256 220.68 14.896C220.381 15.5147 220.232 16.2827 220.232 17.2C220.232 18.1387 220.424 18.96 220.808 19.664C221.213 20.3467 221.789 20.88 222.536 21.264C223.304 21.648 224.21 21.84 225.256 21.84C225.981 21.84 226.621 21.7333 227.176 21.52C227.752 21.3067 228.37 20.944 229.032 20.432L231.432 23.824C230.77 24.4 230.066 24.8693 229.32 25.232C228.573 25.5947 227.805 25.8613 227.016 26.032C226.248 26.224 225.48 26.32 224.712 26.32ZM241.094 26.32C239.43 26.32 237.958 26.0533 236.678 25.52C235.419 24.9867 234.416 24.272 233.67 23.376L236.774 20.688C237.435 21.3493 238.182 21.84 239.014 22.16C239.846 22.4587 240.635 22.608 241.382 22.608C241.68 22.608 241.947 22.576 242.182 22.512C242.416 22.448 242.608 22.3627 242.758 22.256C242.928 22.128 243.056 21.9893 243.142 21.84C243.227 21.6693 243.27 21.4773 243.27 21.264C243.27 20.8373 243.078 20.5067 242.694 20.272C242.502 20.1653 242.182 20.0373 241.734 19.888C241.286 19.7387 240.71 19.568 240.006 19.376C239.003 19.12 238.128 18.8213 237.382 18.48C236.656 18.1173 236.059 17.7013 235.59 17.232C235.163 16.784 234.832 16.2933 234.598 15.76C234.363 15.2053 234.246 14.5867 234.246 13.904C234.246 13.1147 234.427 12.4 234.79 11.76C235.174 11.12 235.675 10.5653 236.294 10.096C236.934 9.62667 237.659 9.27467 238.47 9.04C239.302 8.784 240.155 8.656 241.03 8.656C241.968 8.656 242.864 8.76267 243.718 8.976C244.571 9.18933 245.36 9.488 246.086 9.872C246.832 10.256 247.494 10.7147 248.07 11.248L245.382 14.256C244.998 13.8933 244.56 13.5733 244.07 13.296C243.6 12.9973 243.11 12.7627 242.598 12.592C242.086 12.4213 241.616 12.336 241.19 12.336C240.87 12.336 240.582 12.368 240.326 12.432C240.091 12.4747 239.888 12.56 239.718 12.688C239.547 12.7947 239.419 12.9333 239.334 13.104C239.248 13.2533 239.206 13.4347 239.206 13.648C239.206 13.8613 239.259 14.064 239.366 14.256C239.494 14.448 239.664 14.608 239.878 14.736C240.091 14.864 240.432 15.0133 240.902 15.184C241.371 15.3333 242.011 15.5253 242.822 15.76C243.824 16.0373 244.688 16.3467 245.414 16.688C246.139 17.0293 246.715 17.4347 247.142 17.904C247.483 18.2667 247.739 18.6933 247.91 19.184C248.08 19.6533 248.166 20.1653 248.166 20.72C248.166 21.808 247.856 22.7787 247.238 23.632C246.64 24.464 245.808 25.1253 244.742 25.616C243.675 26.0853 242.459 26.32 241.094 26.32Z" fill="#150B2B"/>
</svg>
